<?xml version="1.0" standalone="no"?>
<!DOCTYPE svg PUBLIC "-//W3C//DTD SVG 20010904//EN"
 "http://www.w3.org/TR/2001/REC-SVG-20010904/DTD/svg10.dtd">
<svg version="1.0" xmlns="http://www.w3.org/2000/svg"
 width="704.000000pt" height="704.000000pt" viewBox="0 0 704.000000 704.000000"
 preserveAspectRatio="xMidYMid meet">
<metadata>
Created by potrace 1.11, written by Peter Selinger 2001-2013
</metadata>
<g transform="translate(0.000000,704.000000) scale(0.100000,-0.100000)"
fill="#000000" stroke="none">
<path d="M2717 6824 c-1 -1 -166 -5 -367 -9 -480 -9 -850 -20 -1040 -30 -36
-2 -121 -6 -190 -10 -69 -3 -156 -8 -195 -10 -179 -13 -214 -15 -270 -20 -33
-3 -76 -8 -95 -10 -19 -2 -60 -7 -90 -11 -96 -11 -114 -13 -154 -20 -48 -8
-106 -31 -106 -43 0 -15 64 -36 140 -46 25 -3 52 -8 60 -10 8 -2 38 -6 65 -9
28 -3 77 -8 110 -11 90 -9 141 -13 245 -20 52 -3 118 -8 145 -9 28 -2 115 -7
195 -11 80 -4 174 -8 210 -10 64 -3 402 -15 590 -20 790 -22 2413 -23 3110 0
52 2 190 6 305 10 116 3 239 8 275 10 36 2 126 6 200 10 153 7 216 11 492 30
252 17 478 58 478 86 0 25 -151 57 -350 74 -36 3 -81 7 -100 10 -37 4 -171 14
-280 20 -36 2 -108 6 -160 9 -284 16 -601 27 -1200 42 -237 6 -2018 13 -2023
8z"/>
<path d="M2849 5616 c-2 -2 -128 -7 -279 -10 -151 -4 -302 -9 -335 -11 -33 -1
-127 -6 -210 -10 -82 -3 -170 -8 -195 -10 -25 -2 -92 -6 -150 -9 -108 -6 -197
-13 -285 -21 -27 -2 -79 -7 -115 -10 -110 -10 -247 -23 -300 -30 -19 -3 -75
-9 -125 -15 -76 -9 -320 -48 -404 -65 -13 -2 -65 -16 -114 -30 -206 -60 -247
-120 -122 -180 58 -28 205 -72 273 -81 26 -3 50 -8 53 -10 5 -3 86 -16 239
-39 19 -2 76 -9 125 -15 50 -6 101 -12 115 -15 14 -2 57 -6 95 -10 39 -3 88
-8 110 -10 22 -2 74 -7 115 -10 41 -3 98 -8 125 -10 73 -7 172 -13 460 -30 89
-5 312 -15 450 -21 606 -23 1686 -22 2295 1 161 6 367 15 445 20 39 2 115 7
170 10 127 7 225 14 295 20 30 2 89 7 130 10 41 4 86 8 100 10 14 2 63 7 110
10 47 3 92 8 100 10 8 2 44 7 80 10 36 3 72 8 80 10 8 2 40 7 70 10 111 12
357 58 440 81 279 80 272 160 -21 238 -52 13 -114 28 -139 32 -25 4 -47 8 -50
9 -8 2 -92 16 -122 21 -16 2 -40 6 -55 9 -16 2 -68 9 -118 15 -49 6 -106 12
-125 15 -19 2 -60 7 -90 10 -30 3 -71 8 -90 10 -19 2 -71 6 -115 10 -44 3 -96
7 -115 10 -19 2 -75 7 -125 10 -49 3 -115 8 -145 10 -30 2 -104 6 -165 9 -60
4 -144 8 -185 11 -41 3 -149 7 -240 11 -91 3 -203 8 -250 10 -103 6 -1686 14
-1691 10z"/>
<path d="M3058 4245 c-1 -1 -93 -6 -203 -9 -110 -4 -218 -9 -240 -10 -22 -2
-94 -7 -160 -10 -66 -4 -136 -9 -155 -11 -19 -2 -73 -6 -120 -10 -47 -3 -101
-8 -120 -10 -19 -2 -64 -7 -100 -10 -36 -3 -76 -8 -90 -10 -14 -3 -53 -7 -88
-10 -35 -4 -71 -8 -80 -10 -9 -1 -46 -6 -82 -10 -36 -3 -72 -8 -80 -10 -8 -3
-35 -7 -60 -10 -49 -6 -51 -6 -190 -30 -126 -21 -120 -20 -236 -44 -55 -12
-109 -23 -120 -25 -193 -39 -539 -153 -634 -210 -19 -12 -48 -28 -65 -36 -48
-24 -140 -121 -151 -161 -40 -132 85 -253 376 -366 98 -37 283 -95 348 -108 9
-2 46 -11 82 -20 66 -17 84 -21 133 -30 15 -3 58 -12 95 -19 37 -8 87 -17 112
-21 25 -3 52 -8 60 -10 16 -5 328 -51 400 -59 59 -7 127 -15 170 -21 19 -2 64
-7 100 -10 36 -3 81 -8 100 -10 19 -2 71 -7 115 -10 44 -4 96 -8 115 -10 19
-2 87 -6 150 -10 63 -3 142 -8 175 -10 395 -27 1485 -27 1815 0 25 2 95 6 155
10 61 3 130 8 155 10 25 2 83 7 130 10 47 3 96 8 110 10 14 2 58 7 97 10 40 3
81 8 91 10 10 2 51 6 91 10 40 3 80 8 90 10 9 2 44 6 76 10 33 4 67 9 75 10
18 3 96 15 130 20 449 66 858 176 1089 292 229 114 298 236 205 360 -86 114
-355 234 -738 328 -161 40 -493 104 -616 119 -69 9 -121 16 -149 21 -14 2 -51
6 -81 10 -30 3 -71 8 -90 10 -19 3 -57 8 -85 10 -27 3 -66 8 -85 10 -19 2 -71
7 -115 10 -44 4 -91 8 -105 10 -14 2 -68 7 -120 10 -52 4 -117 8 -145 10 -27
2 -106 6 -175 10 -69 3 -163 9 -210 11 -96 6 -1146 14 -1152 9z"/>
<path d="M3079 2176 c-2 -2 -67 -7 -144 -10 -77 -4 -160 -8 -185 -10 -25 -2
-83 -7 -130 -11 -47 -3 -105 -8 -130 -11 -140 -13 -236 -24 -270 -29 -14 -2
-50 -6 -80 -10 -30 -3 -66 -8 -80 -11 -14 -2 -43 -7 -64 -9 -40 -5 -58 -8
-156 -25 -30 -5 -71 -12 -90 -15 -427 -71 -928 -223 -1199 -363 -641 -331
-635 -733 16 -1056 264 -131 674 -260 1053 -331 14 -3 36 -7 50 -10 14 -2 39
-7 55 -10 17 -3 39 -7 50 -9 11 -2 40 -7 65 -11 25 -4 52 -9 61 -10 9 -2 40
-6 70 -10 30 -4 56 -8 59 -10 3 -2 34 -6 70 -10 36 -4 73 -9 83 -11 10 -2 46
-6 80 -9 34 -4 76 -8 92 -11 17 -2 59 -6 95 -9 36 -4 83 -8 105 -10 22 -2 83
-7 135 -10 52 -3 114 -8 137 -10 271 -24 1097 -24 1393 0 19 1 76 6 127 9 129
9 202 16 243 21 19 2 64 7 100 10 36 4 76 8 90 10 14 2 48 7 75 10 74 8 124
15 185 25 30 5 73 12 95 15 51 7 93 14 125 20 14 3 41 8 60 11 19 3 42 7 50 9
8 2 31 7 50 10 65 11 214 46 350 81 633 164 1034 383 1157 631 31 63 36 82 36
145 -1 223 -207 420 -630 601 -227 97 -629 216 -893 263 -14 2 -59 11 -100 19
-94 18 -242 43 -295 50 -22 2 -51 7 -65 9 -22 5 -49 8 -170 22 -19 2 -55 6
-80 9 -93 11 -117 13 -190 20 -41 3 -93 8 -115 10 -22 2 -85 7 -140 11 -55 3
-120 8 -145 11 -56 5 -1056 14 -1061 9z"/>
</g>
</svg>
